<?xml version="1.0" encoding="UTF-8" standalone="no"?>
<svg width="1200px" height="80px" viewBox="0 0 1200 80" version="1.1" xmlns="http://www.w3.org/2000/svg">
    <g fill="#000000">
        <!-- Empire State Building -->
        <polygon points="120,80 120,20 125,10 130,20 130,80"/>
        
        <!-- One World Trade Center -->
        <polygon points="190,80 190,15 200,5 210,15 210,80"/>
        
        <!-- Chrysler Building -->
        <polygon points="250,80 250,25 255,15 260,25 260,80"/>
        
        <!-- Various NYC buildings -->
        <rect x="10" y="50" width="20" height="30"/>
        <rect x="40" y="40" width="15" height="40"/>
        <rect x="65" y="30" width="20" height="50"/>
        <rect x="95" y="45" width="15" height="35"/>
        <rect x="140" y="35" width="20" height="45"/>
        <rect x="170" y="55" width="10" height="25"/>
        <rect x="220" y="40" width="20" height="40"/>
        <rect x="280" y="50" width="15" height="30"/>
        <rect x="305" y="30" width="15" height="50"/>
        <rect x="330" y="45" width="20" height="35"/>
        <rect x="360" y="25" width="15" height="55"/>
        <rect x="385" y="40" width="20" height="40"/>
        <rect x="415" y="35" width="20" height="45"/>
        <rect x="445" y="50" width="15" height="30"/>
        <rect x="470" y="30" width="20" height="50"/>
        <rect x="500" y="45" width="20" height="35"/>
        <rect x="530" y="25" width="15" height="55"/>
        <rect x="555" y="40" width="20" height="40"/>
        <rect x="585" y="35" width="15" height="45"/>
        <rect x="610" y="50" width="20" height="30"/>
        <rect x="640" y="30" width="15" height="50"/>
        <rect x="665" y="45" width="20" height="35"/>
        <rect x="695" y="25" width="15" height="55"/>
        <rect x="720" y="40" width="20" height="40"/>
        <rect x="750" y="35" width="15" height="45"/>
        <rect x="775" y="45" width="25" height="35"/>
        <rect x="810" y="30" width="15" height="50"/>
        <rect x="835" y="45" width="20" height="35"/>
        <rect x="865" y="25" width="15" height="55"/>
        <rect x="890" y="40" width="20" height="40"/>
        <rect x="920" y="35" width="15" height="45"/>
        <rect x="945" y="50" width="20" height="30"/>
        <rect x="975" y="30" width="15" height="50"/>
        <rect x="1000" y="45" width="20" height="35"/>
        <rect x="1030" y="25" width="15" height="55"/>
        <rect x="1055" y="40" width="20" height="40"/>
        <rect x="1085" y="35" width="15" height="45"/>
        <rect x="1110" y="45" width="25" height="35"/>
        <rect x="1145" y="30" width="15" height="50"/>
        <rect x="1170" y="40" width="20" height="40"/>
    </g>
</svg> 